<svg width="25" height="24" viewBox="0 0 25 24" fill="none" xmlns="http://www.w3.org/2000/svg">
<path d="M4.17131 2.83228C4.17066 2.83228 4.16993 2.83228 4.16929 2.83228C3.9423 2.83228 3.7288 2.92076 3.56759 3.08157C3.4046 3.24416 3.31482 3.46064 3.31482 3.69111V16.5691C3.31482 17.0414 3.70052 17.4265 4.1747 17.4277C6.17374 17.4325 9.52292 17.8491 11.8334 20.267V6.78978C11.8334 6.6297 11.7925 6.47932 11.7153 6.35487C9.819 3.30096 6.17487 2.83696 4.17131 2.83228Z" fill="white"/>
<path d="M21.6852 16.5692V3.69111C21.6852 3.46064 21.5955 3.24416 21.4325 3.08157C21.2713 2.92076 21.0576 2.83228 20.8309 2.83228C20.8301 2.83228 20.8294 2.83228 20.8288 2.83228C18.8253 2.83704 15.1811 3.30104 13.2847 6.35495C13.2076 6.4794 13.1667 6.62978 13.1667 6.78986V20.267C15.4772 17.8491 18.8264 17.4325 20.8254 17.4277C21.2995 17.4265 21.6852 17.0414 21.6852 16.5692Z" fill="white"/>
<path d="M23.6416 5.80225H23.0189V16.5692C23.0189 17.775 22.0365 18.7582 20.8289 18.7612C19.1333 18.7652 16.3375 19.0968 14.3574 20.9708C17.7819 20.1323 21.392 20.6774 23.4493 21.1462C23.7062 21.2047 23.9717 21.1443 24.1775 20.9802C24.3826 20.8166 24.5002 20.572 24.5002 20.3094V6.66092C24.5003 6.18746 24.115 5.80225 23.6416 5.80225Z" fill="white"/>
<path d="M1.98138 16.5692V5.80225H1.35867C0.885294 5.80225 0.5 6.18746 0.5 6.66092V20.3092C0.5 20.5718 0.617657 20.8164 0.822749 20.98C1.02841 21.144 1.29362 21.2046 1.55091 21.146C3.60829 20.677 7.21841 20.1321 10.6427 20.9705C8.66278 19.0966 5.86697 18.7651 4.17137 18.7611C2.96385 18.7582 1.98138 17.775 1.98138 16.5692Z" fill="white"/>
</svg>
