<svg width="24" height="25" viewBox="0 0 24 25" fill="none" xmlns="http://www.w3.org/2000/svg">
<path d="M21 6.34766C17.67 6.01766 14.32 5.84766 10.98 5.84766C9 5.84766 7.02 5.94766 5.04 6.14766L3 6.34766" stroke="#FF4F4F" stroke-width="1.5" stroke-linecap="round" stroke-linejoin="round"/>
<path d="M8.5 5.33719L8.72 4.02719C8.88 3.07719 9 2.36719 10.69 2.36719H13.31C15 2.36719 15.13 3.11719 15.28 4.03719L15.5 5.33719" stroke="#FF4F4F" stroke-width="1.5" stroke-linecap="round" stroke-linejoin="round"/>
<path d="M18.8499 9.50684L18.1999 19.5768C18.0899 21.1468 17.9999 22.3668 15.2099 22.3668H8.7899C5.9999 22.3668 5.9099 21.1468 5.7999 19.5768L5.1499 9.50684" stroke="#FF4F4F" stroke-width="1.5" stroke-linecap="round" stroke-linejoin="round"/>
<path d="M10.3301 16.8672H13.6601" stroke="#FF4F4F" stroke-width="1.5" stroke-linecap="round" stroke-linejoin="round"/>
<path d="M9.5 12.8672H14.5" stroke="#FF4F4F" stroke-width="1.5" stroke-linecap="round" stroke-linejoin="round"/>
</svg>
